<svg class="sprite" viewBox="0 0 30 40" shape-rendering="crispEdges" xmlns="http://www.w3.org/2000/svg" aria-hidden="true">
  <rect x="9" y="0" width="1" height="1" fill="#b06b80"/>
  <rect x="12" y="0" width="1" height="1" fill="#b06b80"/>
  <rect x="15" y="0" width="1" height="1" fill="#b06b80"/>
  <rect x="18" y="0" width="1" height="1" fill="#b06b80"/>
  <rect x="21" y="0" width="1" height="1" fill="#7e4a5c"/>
  <rect x="8" y="1" width="1" height="1" fill="#7e4a5c"/>
  <rect x="9" y="1" width="1" height="1" fill="#b06b80"/>
  <rect x="12" y="1" width="2" height="1" fill="#b06b80"/>
  <rect x="15" y="1" width="2" height="1" fill="#b06b80"/>
  <rect x="18" y="1" width="2" height="1" fill="#b06b80"/>
  <rect x="21" y="1" width="1" height="1" fill="#7e4a5c"/>
  <rect x="8" y="2" width="1" height="1" fill="#b06b80"/>
  <rect x="9" y="2" width="1" height="1" fill="#d99cae"/>
  <rect x="10" y="2" width="1" height="1" fill="#b06b80"/>
  <rect x="11" y="2" width="1" height="1" fill="#7e4a5c"/>
  <rect x="12" y="2" width="1" height="1" fill="#f0c2d0"/>
  <rect x="13" y="2" width="1" height="1" fill="#b06b80"/>
  <rect x="14" y="2" width="1" height="1" fill="#7e4a5c"/>
  <rect x="15" y="2" width="1" height="1" fill="#f0c2d0"/>
  <rect x="16" y="2" width="1" height="1" fill="#b06b80"/>
  <rect x="17" y="2" width="1" height="1" fill="#7e4a5c"/>
  <rect x="18" y="2" width="4" height="1" fill="#b06b80"/>
  <rect x="7" y="3" width="1" height="1" fill="#7e4a5c"/>
  <rect x="8" y="3" width="1" height="1" fill="#b06b80"/>
  <rect x="9" y="3" width="1" height="1" fill="#d99cae"/>
  <rect x="10" y="3" width="3" height="1" fill="#b06b80"/>
  <rect x="13" y="3" width="2" height="1" fill="#d99cae"/>
  <rect x="15" y="3" width="2" height="1" fill="#b06b80"/>
  <rect x="17" y="3" width="1" height="1" fill="#d99cae"/>
  <rect x="18" y="3" width="4" height="1" fill="#b06b80"/>
  <rect x="22" y="3" width="1" height="1" fill="#7e4a5c"/>
  <rect x="6" y="4" width="1" height="1" fill="#7e4a5c"/>
  <rect x="7" y="4" width="2" height="1" fill="#b06b80"/>
  <rect x="9" y="4" width="1" height="1" fill="#d99cae"/>
  <rect x="10" y="4" width="3" height="1" fill="#b06b80"/>
  <rect x="13" y="4" width="2" height="1" fill="#f0c2d0"/>
  <rect x="15" y="4" width="2" height="1" fill="#b06b80"/>
  <rect x="17" y="4" width="1" height="1" fill="#d99cae"/>
  <rect x="18" y="4" width="5" height="1" fill="#b06b80"/>
  <rect x="23" y="4" width="1" height="1" fill="#7e4a5c"/>
  <rect x="6" y="5" width="1" height="1" fill="#7e4a5c"/>
  <rect x="7" y="5" width="2" height="1" fill="#b06b80"/>
  <rect x="9" y="5" width="1" height="1" fill="#d99cae"/>
  <rect x="10" y="5" width="3" height="1" fill="#b06b80"/>
  <rect x="13" y="5" width="2" height="1" fill="#d99cae"/>
  <rect x="15" y="5" width="2" height="1" fill="#b06b80"/>
  <rect x="17" y="5" width="1" height="1" fill="#d99cae"/>
  <rect x="18" y="5" width="5" height="1" fill="#b06b80"/>
  <rect x="23" y="5" width="1" height="1" fill="#7e4a5c"/>
  <rect x="6" y="6" width="1" height="1" fill="#7e4a5c"/>
  <rect x="7" y="6" width="2" height="1" fill="#b06b80"/>
  <rect x="9" y="6" width="1" height="1" fill="#d99cae"/>
  <rect x="10" y="6" width="3" height="1" fill="#b06b80"/>
  <rect x="13" y="6" width="1" height="1" fill="#d99cae"/>
  <rect x="14" y="6" width="3" height="1" fill="#b06b80"/>
  <rect x="17" y="6" width="1" height="1" fill="#d99cae"/>
  <rect x="18" y="6" width="5" height="1" fill="#b06b80"/>
  <rect x="23" y="6" width="1" height="1" fill="#7e4a5c"/>
  <rect x="6" y="7" width="1" height="1" fill="#7e4a5c"/>
  <rect x="7" y="7" width="3" height="1" fill="#b06b80"/>
  <rect x="10" y="7" width="1" height="1" fill="#e8b489"/>
  <rect x="11" y="7" width="7" height="1" fill="#241620"/>
  <rect x="18" y="7" width="1" height="1" fill="#e8b489"/>
  <rect x="19" y="7" width="3" height="1" fill="#b06b80"/>
  <rect x="22" y="7" width="1" height="1" fill="#7e4a5c"/>
  <rect x="6" y="8" width="1" height="1" fill="#7e4a5c"/>
  <rect x="7" y="8" width="2" height="1" fill="#b06b80"/>
  <rect x="9" y="8" width="2" height="1" fill="#e8b489"/>
  <rect x="11" y="8" width="1" height="1" fill="#241620"/>
  <rect x="12" y="8" width="2" height="1" fill="#e8b489"/>
  <rect x="14" y="8" width="1" height="1" fill="#241620"/>
  <rect x="15" y="8" width="2" height="1" fill="#e8b489"/>
  <rect x="17" y="8" width="1" height="1" fill="#241620"/>
  <rect x="18" y="8" width="2" height="1" fill="#e8b489"/>
  <rect x="20" y="8" width="2" height="1" fill="#b06b80"/>
  <rect x="22" y="8" width="1" height="1" fill="#7e4a5c"/>
  <rect x="7" y="9" width="2" height="1" fill="#7e4a5c"/>
  <rect x="9" y="9" width="1" height="1" fill="#c5895f"/>
  <rect x="10" y="9" width="3" height="1" fill="#241620"/>
  <rect x="13" y="9" width="3" height="1" fill="#e8b489"/>
  <rect x="16" y="9" width="3" height="1" fill="#241620"/>
  <rect x="19" y="9" width="1" height="1" fill="#c5895f"/>
  <rect x="20" y="9" width="2" height="1" fill="#7e4a5c"/>
  <rect x="7" y="10" width="1" height="1" fill="#7e4a5c"/>
  <rect x="9" y="10" width="1" height="1" fill="#c5895f"/>
  <rect x="10" y="10" width="1" height="1" fill="#e8b489"/>
  <rect x="11" y="10" width="1" height="1" fill="#150f14"/>
  <rect x="12" y="10" width="1" height="1" fill="#e23b3b"/>
  <rect x="13" y="10" width="1" height="1" fill="#a32626"/>
  <rect x="14" y="10" width="1" height="1" fill="#e8b489"/>
  <rect x="15" y="10" width="1" height="1" fill="#a32626"/>
  <rect x="16" y="10" width="1" height="1" fill="#e23b3b"/>
  <rect x="17" y="10" width="1" height="1" fill="#150f14"/>
  <rect x="18" y="10" width="1" height="1" fill="#e8b489"/>
  <rect x="19" y="10" width="1" height="1" fill="#c5895f"/>
  <rect x="21" y="10" width="1" height="1" fill="#7e4a5c"/>
  <rect x="9" y="11" width="1" height="1" fill="#c5895f"/>
  <rect x="10" y="11" width="1" height="1" fill="#241620"/>
  <rect x="11" y="11" width="7" height="1" fill="#e8b489"/>
  <rect x="18" y="11" width="1" height="1" fill="#241620"/>
  <rect x="19" y="11" width="1" height="1" fill="#c5895f"/>
  <rect x="9" y="12" width="1" height="1" fill="#c5895f"/>
  <rect x="10" y="12" width="1" height="1" fill="#e8b489"/>
  <rect x="11" y="12" width="1" height="1" fill="#a32626"/>
  <rect x="12" y="12" width="1" height="1" fill="#e23b3b"/>
  <rect x="13" y="12" width="3" height="1" fill="#e8b489"/>
  <rect x="16" y="12" width="1" height="1" fill="#e23b3b"/>
  <rect x="17" y="12" width="1" height="1" fill="#a32626"/>
  <rect x="18" y="12" width="1" height="1" fill="#e8b489"/>
  <rect x="19" y="12" width="1" height="1" fill="#c5895f"/>
  <rect x="10" y="13" width="1" height="1" fill="#e8b489"/>
  <rect x="11" y="13" width="1" height="1" fill="#241620"/>
  <rect x="12" y="13" width="2" height="1" fill="#e8b489"/>
  <rect x="14" y="13" width="1" height="1" fill="#c5895f"/>
  <rect x="15" y="13" width="2" height="1" fill="#e8b489"/>
  <rect x="17" y="13" width="1" height="1" fill="#241620"/>
  <rect x="18" y="13" width="1" height="1" fill="#e8b489"/>
  <rect x="10" y="14" width="1" height="1" fill="#e8b489"/>
  <rect x="11" y="14" width="1" height="1" fill="#c5895f"/>
  <rect x="12" y="14" width="1" height="1" fill="#e8b489"/>
  <rect x="13" y="14" width="3" height="1" fill="#241620"/>
  <rect x="16" y="14" width="1" height="1" fill="#e8b489"/>
  <rect x="17" y="14" width="1" height="1" fill="#c5895f"/>
  <rect x="18" y="14" width="1" height="1" fill="#e8b489"/>
  <rect x="10" y="15" width="1" height="1" fill="#c5895f"/>
  <rect x="11" y="15" width="3" height="1" fill="#e8b489"/>
  <rect x="14" y="15" width="1" height="1" fill="#c5895f"/>
  <rect x="15" y="15" width="3" height="1" fill="#e8b489"/>
  <rect x="18" y="15" width="1" height="1" fill="#c5895f"/>
  <rect x="12" y="16" width="5" height="1" fill="#e8b489"/>
  <rect x="12" y="17" width="1" height="1" fill="#c5895f"/>
  <rect x="13" y="17" width="3" height="1" fill="#e8b489"/>
  <rect x="16" y="17" width="1" height="1" fill="#c5895f"/>
  <rect x="8" y="18" width="1" height="1" fill="#e8b489"/>
  <rect x="9" y="18" width="1" height="1" fill="#c5895f"/>
  <rect x="10" y="18" width="9" height="1" fill="#e8b489"/>
  <rect x="19" y="18" width="1" height="1" fill="#c5895f"/>
  <rect x="20" y="18" width="1" height="1" fill="#e8b489"/>
  <rect x="7" y="19" width="2" height="1" fill="#e8b489"/>
  <rect x="9" y="19" width="1" height="1" fill="#c5895f"/>
  <rect x="10" y="19" width="1" height="1" fill="#e8b489"/>
  <rect x="11" y="19" width="1" height="1" fill="#241620"/>
  <rect x="12" y="19" width="2" height="1" fill="#e8b489"/>
  <rect x="14" y="19" width="1" height="1" fill="#c5895f"/>
  <rect x="15" y="19" width="2" height="1" fill="#e8b489"/>
  <rect x="17" y="19" width="1" height="1" fill="#241620"/>
  <rect x="18" y="19" width="1" height="1" fill="#e8b489"/>
  <rect x="19" y="19" width="1" height="1" fill="#c5895f"/>
  <rect x="20" y="19" width="2" height="1" fill="#e8b489"/>
  <rect x="5" y="20" width="1" height="1" fill="#c5895f"/>
  <rect x="6" y="20" width="1" height="1" fill="#e8b489"/>
  <rect x="7" y="20" width="1" height="1" fill="#241620"/>
  <rect x="8" y="20" width="1" height="1" fill="#e8b489"/>
  <rect x="9" y="20" width="1" height="1" fill="#c5895f"/>
  <rect x="10" y="20" width="2" height="1" fill="#241620"/>
  <rect x="12" y="20" width="2" height="1" fill="#e8b489"/>
  <rect x="14" y="20" width="1" height="1" fill="#c5895f"/>
  <rect x="15" y="20" width="2" height="1" fill="#e8b489"/>
  <rect x="17" y="20" width="2" height="1" fill="#241620"/>
  <rect x="19" y="20" width="1" height="1" fill="#c5895f"/>
  <rect x="20" y="20" width="1" height="1" fill="#e8b489"/>
  <rect x="21" y="20" width="1" height="1" fill="#241620"/>
  <rect x="22" y="20" width="1" height="1" fill="#e8b489"/>
  <rect x="23" y="20" width="1" height="1" fill="#c5895f"/>
  <rect x="5" y="21" width="1" height="1" fill="#e8b489"/>
  <rect x="6" y="21" width="1" height="1" fill="#241620"/>
  <rect x="8" y="21" width="1" height="1" fill="#e8b489"/>
  <rect x="9" y="21" width="1" height="1" fill="#c5895f"/>
  <rect x="10" y="21" width="1" height="1" fill="#241620"/>
  <rect x="11" y="21" width="7" height="1" fill="#e8b489"/>
  <rect x="18" y="21" width="1" height="1" fill="#241620"/>
  <rect x="19" y="21" width="1" height="1" fill="#c5895f"/>
  <rect x="20" y="21" width="1" height="1" fill="#e8b489"/>
  <rect x="22" y="21" width="1" height="1" fill="#241620"/>
  <rect x="23" y="21" width="1" height="1" fill="#e8b489"/>
  <rect x="4" y="22" width="1" height="1" fill="#9c6442"/>
  <rect x="5" y="22" width="1" height="1" fill="#e8b489"/>
  <rect x="9" y="22" width="1" height="1" fill="#e8b489"/>
  <rect x="10" y="22" width="1" height="1" fill="#c5895f"/>
  <rect x="11" y="22" width="1" height="1" fill="#e8b489"/>
  <rect x="12" y="22" width="1" height="1" fill="#c5895f"/>
  <rect x="13" y="22" width="1" height="1" fill="#241620"/>
  <rect x="14" y="22" width="1" height="1" fill="#e8b489"/>
  <rect x="15" y="22" width="1" height="1" fill="#241620"/>
  <rect x="16" y="22" width="1" height="1" fill="#c5895f"/>
  <rect x="17" y="22" width="1" height="1" fill="#e8b489"/>
  <rect x="18" y="22" width="1" height="1" fill="#c5895f"/>
  <rect x="19" y="22" width="1" height="1" fill="#e8b489"/>
  <rect x="23" y="22" width="1" height="1" fill="#e8b489"/>
  <rect x="24" y="22" width="1" height="1" fill="#9c6442"/>
  <rect x="3" y="23" width="1" height="1" fill="#c5895f"/>
  <rect x="4" y="23" width="1" height="1" fill="#e8b489"/>
  <rect x="9" y="23" width="1" height="1" fill="#e8b489"/>
  <rect x="10" y="23" width="1" height="1" fill="#c5895f"/>
  <rect x="11" y="23" width="1" height="1" fill="#e8b489"/>
  <rect x="12" y="23" width="1" height="1" fill="#241620"/>
  <rect x="13" y="23" width="1" height="1" fill="#e8b489"/>
  <rect x="14" y="23" width="1" height="1" fill="#c5895f"/>
  <rect x="15" y="23" width="1" height="1" fill="#e8b489"/>
  <rect x="16" y="23" width="1" height="1" fill="#241620"/>
  <rect x="17" y="23" width="1" height="1" fill="#e8b489"/>
  <rect x="18" y="23" width="1" height="1" fill="#c5895f"/>
  <rect x="19" y="23" width="1" height="1" fill="#e8b489"/>
  <rect x="24" y="23" width="1" height="1" fill="#e8b489"/>
  <rect x="25" y="23" width="1" height="1" fill="#c5895f"/>
  <rect x="3" y="24" width="2" height="1" fill="#e8b489"/>
  <rect x="10" y="24" width="1" height="1" fill="#c5895f"/>
  <rect x="11" y="24" width="2" height="1" fill="#e8b489"/>
  <rect x="13" y="24" width="1" height="1" fill="#c5895f"/>
  <rect x="14" y="24" width="1" height="1" fill="#e8b489"/>
  <rect x="15" y="24" width="1" height="1" fill="#c5895f"/>
  <rect x="16" y="24" width="2" height="1" fill="#e8b489"/>
  <rect x="18" y="24" width="1" height="1" fill="#c5895f"/>
  <rect x="24" y="24" width="2" height="1" fill="#e8b489"/>
  <rect x="3" y="25" width="2" height="1" fill="#e8b489"/>
  <rect x="10" y="25" width="1" height="1" fill="#c5895f"/>
  <rect x="11" y="25" width="7" height="1" fill="#e8b489"/>
  <rect x="18" y="25" width="1" height="1" fill="#c5895f"/>
  <rect x="24" y="25" width="2" height="1" fill="#e8b489"/>
  <rect x="2" y="26" width="1" height="1" fill="#c5895f"/>
  <rect x="3" y="26" width="2" height="1" fill="#e8b489"/>
  <rect x="9" y="26" width="4" height="1" fill="#cfc7b6"/>
  <rect x="13" y="26" width="1" height="1" fill="#22202e"/>
  <rect x="14" y="26" width="1" height="1" fill="#cfc7b6"/>
  <rect x="15" y="26" width="1" height="1" fill="#22202e"/>
  <rect x="16" y="26" width="4" height="1" fill="#cfc7b6"/>
  <rect x="24" y="26" width="2" height="1" fill="#e8b489"/>
  <rect x="26" y="26" width="1" height="1" fill="#c5895f"/>
  <rect x="8" y="27" width="1" height="1" fill="#141220"/>
  <rect x="9" y="27" width="12" height="1" fill="#22202e"/>
  <rect x="7" y="28" width="1" height="1" fill="#22202e"/>
  <rect x="8" y="28" width="1" height="1" fill="#141220"/>
  <rect x="9" y="28" width="1" height="1" fill="#22202e"/>
  <rect x="10" y="28" width="1" height="1" fill="#34314a"/>
  <rect x="11" y="28" width="10" height="1" fill="#22202e"/>
  <rect x="21" y="28" width="1" height="1" fill="#141220"/>
  <rect x="7" y="29" width="1" height="1" fill="#22202e"/>
  <rect x="8" y="29" width="1" height="1" fill="#141220"/>
  <rect x="9" y="29" width="1" height="1" fill="#34314a"/>
  <rect x="10" y="29" width="11" height="1" fill="#22202e"/>
  <rect x="21" y="29" width="1" height="1" fill="#141220"/>
  <rect x="7" y="30" width="1" height="1" fill="#22202e"/>
  <rect x="8" y="30" width="1" height="1" fill="#141220"/>
  <rect x="9" y="30" width="8" height="1" fill="#22202e"/>
  <rect x="17" y="30" width="1" height="1" fill="#34314a"/>
  <rect x="18" y="30" width="3" height="1" fill="#22202e"/>
  <rect x="21" y="30" width="1" height="1" fill="#141220"/>
  <rect x="7" y="31" width="1" height="1" fill="#22202e"/>
  <rect x="8" y="31" width="1" height="1" fill="#141220"/>
  <rect x="9" y="31" width="3" height="1" fill="#22202e"/>
  <rect x="13" y="31" width="5" height="1" fill="#22202e"/>
  <rect x="18" y="31" width="1" height="1" fill="#34314a"/>
  <rect x="19" y="31" width="3" height="1" fill="#22202e"/>
  <rect x="7" y="32" width="1" height="1" fill="#22202e"/>
  <rect x="8" y="32" width="1" height="1" fill="#141220"/>
  <rect x="9" y="32" width="1" height="1" fill="#34314a"/>
  <rect x="10" y="32" width="2" height="1" fill="#22202e"/>
  <rect x="14" y="32" width="8" height="1" fill="#22202e"/>
  <rect x="7" y="33" width="1" height="1" fill="#22202e"/>
  <rect x="8" y="33" width="1" height="1" fill="#141220"/>
  <rect x="9" y="33" width="3" height="1" fill="#22202e"/>
  <rect x="15" y="33" width="1" height="1" fill="#22202e"/>
  <rect x="16" y="33" width="1" height="1" fill="#34314a"/>
  <rect x="17" y="33" width="5" height="1" fill="#22202e"/>
  <rect x="8" y="34" width="1" height="1" fill="#141220"/>
  <rect x="9" y="34" width="3" height="1" fill="#22202e"/>
  <rect x="12" y="34" width="1" height="1" fill="#141220"/>
  <rect x="14" y="34" width="1" height="1" fill="#141220"/>
  <rect x="15" y="34" width="6" height="1" fill="#22202e"/>
  <rect x="8" y="35" width="2" height="1" fill="#141220"/>
  <rect x="10" y="35" width="2" height="1" fill="#22202e"/>
  <rect x="12" y="35" width="1" height="1" fill="#141220"/>
  <rect x="14" y="35" width="1" height="1" fill="#141220"/>
  <rect x="15" y="35" width="4" height="1" fill="#22202e"/>
  <rect x="19" y="35" width="1" height="1" fill="#141220"/>
  <rect x="20" y="35" width="1" height="1" fill="#22202e"/>
  <rect x="8" y="36" width="1" height="1" fill="#c5895f"/>
  <rect x="9" y="36" width="3" height="1" fill="#e8b489"/>
  <rect x="15" y="36" width="4" height="1" fill="#e8b489"/>
  <rect x="19" y="36" width="1" height="1" fill="#c5895f"/>
  <rect x="9" y="37" width="2" height="1" fill="#e8b489"/>
  <rect x="11" y="37" width="1" height="1" fill="#c5895f"/>
  <rect x="16" y="37" width="1" height="1" fill="#c5895f"/>
  <rect x="17" y="37" width="2" height="1" fill="#e8b489"/>
</svg>